# Blender 4.2.3 LTS
# www.blender.org
mtllib bottle1.mtl
g WaterBottle_3_Cylinder.002
v -75.802322 2.748837 4.338127
v -75.802322 3.783151 4.338126
v -75.682152 2.748837 4.370326
v -75.682152 3.783151 4.370326
v -75.594185 2.748837 4.458295
v -75.594185 3.783151 4.458295
v -75.561981 2.748837 4.578465
v -75.561981 3.783151 4.578465
v -75.594185 2.748837 4.698634
v -75.594185 3.783151 4.698633
v -75.682152 2.748837 4.786603
v -75.682152 3.783151 4.786603
v -75.802322 2.748837 4.818802
v -75.802322 3.783151 4.818802
v -75.922493 2.748837 4.786603
v -75.922493 3.783151 4.786603
v -76.010460 2.748837 4.698634
v -76.010460 3.783151 4.698633
v -76.042664 2.748837 4.578465
v -76.042664 3.783151 4.578465
v -76.010460 2.748837 4.458296
v -76.010460 3.783151 4.458295
v -75.922493 2.748837 4.370326
v -75.922493 3.783151 4.370326
v -75.802322 2.698992 4.397306
v -75.711746 2.698992 4.421577
v -75.645432 2.698992 4.487885
v -75.621162 2.698992 4.578465
v -75.645432 2.698992 4.669044
v -75.711746 2.698992 4.735352
v -75.802322 2.698992 4.759623
v -75.892899 2.698992 4.735352
v -75.959213 2.698992 4.669044
v -75.983482 2.698992 4.578465
v -75.959213 2.698992 4.487885
v -75.892899 2.698992 4.421577
v -75.690636 3.859423 4.385011
v -75.802322 3.859423 4.355084
v -75.608871 3.859423 4.466774
v -75.578941 3.859423 4.578465
v -75.608871 3.859423 4.690155
v -75.690636 3.859423 4.771917
v -75.802322 3.859423 4.801845
v -75.914009 3.859423 4.771917
v -75.995773 3.859423 4.690155
v -76.025703 3.859423 4.578465
v -75.995773 3.859423 4.466774
v -75.914009 3.859423 4.385011
v -75.757050 3.974167 4.500056
v -75.802322 3.974167 4.487926
v -75.723915 3.974167 4.533195
v -75.711784 3.974167 4.578465
v -75.723915 3.974167 4.623734
v -75.757050 3.974167 4.656873
v -75.802322 3.974167 4.669003
v -75.847595 3.974167 4.656873
v -75.880730 3.974167 4.623734
v -75.892860 3.974167 4.578465
v -75.880730 3.974167 4.533195
v -75.847595 3.974167 4.500056
v -75.752899 4.041078 4.492857
v -75.802322 4.041078 4.479613
v -75.716713 4.041078 4.529038
v -75.703468 4.041078 4.578465
v -75.716713 4.041078 4.627890
v -75.752899 4.041078 4.664072
v -75.802322 4.041078 4.677316
v -75.851746 4.041078 4.664072
v -75.887932 4.041078 4.627890
v -75.901176 4.041078 4.578465
v -75.887932 4.041078 4.529038
v -75.851746 4.041078 4.492857
v -75.802322 4.020356 4.464329
v -75.802322 4.134024 4.464329
v -75.721619 4.020356 4.497758
v -75.721619 4.134024 4.497758
v -75.688187 4.020356 4.578465
v -75.688187 4.134024 4.578465
v -75.721619 4.020356 4.659170
v -75.721619 4.134024 4.659170
v -75.802322 4.020356 4.692600
v -75.802322 4.134024 4.692600
v -75.883026 4.020356 4.659170
v -75.883026 4.134024 4.659170
v -75.916458 4.020356 4.578465
v -75.916458 4.134024 4.578465
v -75.883026 4.020356 4.497758
v -75.883026 4.134024 4.497758
v -75.802322 3.160771 4.328734
v -75.677460 3.160771 4.362192
v -75.586052 3.160771 4.453599
v -75.552589 3.160771 4.578465
v -75.586052 3.160771 4.703330
v -75.677460 3.160771 4.794737
v -75.802322 3.160771 4.828195
v -75.927185 3.160771 4.794737
v -76.018593 3.160771 4.703330
v -76.052055 3.160771 4.578465
v -76.018593 3.160771 4.453599
v -75.927185 3.160771 4.362192
v -75.802322 3.283113 4.331340
v -75.678757 3.283113 4.364448
v -75.588303 3.283113 4.454902
v -75.555199 3.283113 4.578465
v -75.588303 3.283113 4.702027
v -75.678757 3.283113 4.792480
v -75.802322 3.283113 4.825589
v -75.925888 3.283113 4.792480
v -76.016342 3.283113 4.702027
v -76.049446 3.283113 4.578465
v -76.016342 3.283113 4.454902
v -75.925888 3.283113 4.364448
v -75.802322 3.342192 4.342505
v -75.684341 3.342192 4.374118
v -75.597977 3.342192 4.460485
v -75.566360 3.342192 4.578465
v -75.597977 3.342192 4.696444
v -75.684341 3.342192 4.782811
v -75.802322 3.342192 4.814424
v -75.920303 3.342192 4.782811
v -76.006668 3.342192 4.696444
v -76.038284 3.342192 4.578465
v -76.006668 3.342192 4.460485
v -75.920303 3.342192 4.374118
v -75.802322 3.452644 4.341046
v -75.802322 3.712329 4.339586
v -75.682884 3.712329 4.371590
v -75.683617 3.452644 4.372854
v -75.595451 3.712329 4.459025
v -75.596710 3.452644 4.459755
v -75.563446 3.712329 4.578465
v -75.564903 3.452644 4.578465
v -75.595451 3.712329 4.697904
v -75.596710 3.452644 4.697174
v -75.682884 3.712329 4.785339
v -75.683617 3.452644 4.784075
v -75.802322 3.712329 4.817343
v -75.802322 3.452644 4.815883
v -75.921761 3.712329 4.785339
v -75.921028 3.452644 4.784075
v -76.009193 3.712329 4.697904
v -76.007935 3.452644 4.697174
v -76.041199 3.712329 4.578465
v -76.039742 3.452644 4.578465
v -76.009193 3.712329 4.459025
v -76.007935 3.452644 4.459755
v -75.921761 3.712329 4.371590
v -75.921028 3.452644 4.372854
vn 0.2588 -0.0199 -0.9657
vn 0.7070 -0.0199 -0.7070
vn 0.9657 -0.0199 -0.2588
vn 0.9657 -0.0199 0.2588
vn 0.7070 -0.0199 0.7070
vn 0.2588 -0.0199 0.9657
vn -0.2588 -0.0199 0.9657
vn -0.7070 -0.0199 0.7070
vn -0.9657 -0.0199 0.2588
vn -0.9657 -0.0199 -0.2588
vn -0.6913 0.2100 0.6913
vn -0.7070 -0.0199 -0.7070
vn -0.2588 -0.0199 -0.9657
vn 0.1701 -0.7537 0.6348
vn -0.0000 -1.0000 -0.0000
vn 0.4647 -0.7537 0.4647
vn 0.6348 -0.7537 0.1701
vn -0.1701 -0.7537 -0.6348
vn 0.1701 -0.7537 -0.6348
vn 0.6348 -0.7537 -0.1701
vn -0.4647 -0.7537 -0.4647
vn 0.4647 -0.7537 -0.4647
vn -0.6348 -0.7537 -0.1701
vn -0.6348 -0.7537 0.1701
vn -0.4647 -0.7537 0.4647
vn -0.1701 -0.7537 0.6348
vn -0.4713 0.7454 0.4713
vn -0.2530 0.2100 0.9444
vn 0.2530 0.2100 0.9444
vn 0.6913 0.2100 0.6913
vn 0.9444 0.2100 0.2530
vn -0.2530 0.2100 -0.9444
vn 0.2530 0.2100 -0.9444
vn 0.9444 0.2100 -0.2530
vn -0.6913 0.2100 -0.6913
vn 0.6913 0.2100 -0.6913
vn -0.9444 0.2100 -0.2530
vn -0.9444 0.2100 0.2530
vn 0.2570 -0.1192 -0.9590
vn 0.4713 0.7454 0.4713
vn -0.1725 0.7454 -0.6439
vn 0.4713 0.7454 -0.4713
vn -0.6439 0.7454 0.1725
vn 0.1725 0.7454 0.6439
vn 0.6439 0.7454 -0.1725
vn -0.6439 0.7454 -0.1725
vn -0.1725 0.7454 0.6439
vn 0.6439 0.7454 0.1725
vn -0.4713 0.7454 -0.4713
vn 0.1725 0.7454 -0.6439
vn -0.0000 1.0000 -0.0000
vn -0.7021 -0.1192 0.7021
vn 0.7021 -0.1192 0.7021
vn -0.2570 -0.1192 -0.9590
vn 0.7021 -0.1192 -0.7021
vn -0.9590 -0.1192 0.2570
vn 0.2570 -0.1192 0.9590
vn 0.9590 -0.1192 -0.2570
vn -0.9590 -0.1192 -0.2570
vn -0.2570 -0.1192 0.9590
vn 0.9590 -0.1192 0.2570
vn -0.7021 -0.1192 -0.7021
vn 0.3827 -0.0000 -0.9239
vn 0.9239 -0.0000 -0.3827
vn 0.9239 -0.0000 0.3827
vn 0.3827 -0.0000 0.9239
vn -0.3827 -0.0000 0.9239
vn -0.9239 -0.0000 0.3827
vn -0.9239 -0.0000 -0.3827
vn -0.3827 -0.0000 -0.9239
vn -0.2588 -0.0220 -0.9657
vn -0.7069 -0.0220 -0.7069
vn -0.9657 -0.0220 -0.2588
vn -0.9657 -0.0220 0.2588
vn -0.7069 -0.0220 0.7069
vn -0.2588 -0.0220 0.9657
vn 0.2588 -0.0220 0.9657
vn 0.7069 -0.0220 0.7069
vn 0.9657 -0.0220 0.2588
vn 0.9657 -0.0220 -0.2588
vn 0.7069 -0.0220 -0.7069
vn 0.2588 -0.0220 -0.9657
vn -0.2588 0.0206 -0.9657
vn -0.7070 0.0206 -0.7070
vn -0.9657 0.0206 -0.2588
vn -0.9657 0.0206 0.2588
vn -0.7070 0.0206 0.7070
vn -0.2588 0.0206 0.9657
vn 0.2588 0.0206 0.9657
vn 0.7070 0.0206 0.7070
vn 0.9657 0.0206 0.2588
vn 0.9657 0.0206 -0.2588
vn 0.7070 0.0206 -0.7070
vn 0.2588 0.0206 -0.9657
vn -0.2546 0.1796 -0.9502
vn -0.6956 0.1796 -0.6956
vn -0.9502 0.1796 -0.2546
vn -0.9502 0.1796 0.2546
vn -0.6956 0.1796 0.6956
vn -0.2546 0.1796 0.9502
vn 0.2546 0.1796 0.9502
vn 0.6956 0.1796 0.6956
vn 0.9502 0.1796 0.2546
vn 0.9502 0.1796 -0.2546
vn 0.6956 0.1796 -0.6956
vn 0.2546 0.1796 -0.9502
vn -0.2588 -0.0128 -0.9658
vn -0.2588 -0.0091 -0.9659
vn -0.2588 -0.0054 -0.9659
vn -0.7070 -0.0128 -0.7070
vn -0.7071 -0.0091 -0.7071
vn -0.7071 -0.0054 -0.7071
vn -0.9658 -0.0128 -0.2588
vn -0.9659 -0.0091 -0.2588
vn -0.9659 -0.0054 -0.2588
vn -0.9658 -0.0128 0.2588
vn -0.9659 -0.0091 0.2588
vn -0.9659 -0.0054 0.2588
vn -0.7070 -0.0128 0.7070
vn -0.7071 -0.0091 0.7071
vn -0.7071 -0.0054 0.7071
vn -0.2588 -0.0128 0.9658
vn -0.2588 -0.0091 0.9659
vn -0.2588 -0.0054 0.9659
vn 0.2588 -0.0128 0.9658
vn 0.2588 -0.0091 0.9659
vn 0.2588 -0.0054 0.9659
vn 0.7070 -0.0128 0.7070
vn 0.7071 -0.0091 0.7071
vn 0.7071 -0.0054 0.7071
vn 0.9658 -0.0128 0.2588
vn 0.9659 -0.0091 0.2588
vn 0.9659 -0.0054 0.2588
vn 0.9658 -0.0128 -0.2588
vn 0.9659 -0.0091 -0.2588
vn 0.9659 -0.0054 -0.2588
vn 0.7070 -0.0128 -0.7070
vn 0.7071 -0.0091 -0.7071
vn 0.7071 -0.0054 -0.7071
vn 0.2588 -0.0128 -0.9658
vn 0.2588 -0.0091 -0.9659
vn 0.2588 -0.0054 -0.9659
vt 0.061911 0.094965
vt 0.061465 0.050085
vt 0.137847 0.050661
vt 0.137829 0.095538
vt 0.213903 0.050085
vt 0.213424 0.094965
vt 0.269254 0.048510
vt 0.268439 0.093401
vt 0.501618 0.093463
vt 0.500463 0.048580
vt 0.555824 0.049735
vt 0.556644 0.094610
vt 0.631883 0.049735
vt 0.632240 0.094610
vt 0.708258 0.048580
vt 0.708151 0.093463
vt 0.279215 0.093426
vt 0.278561 0.048502
vt 0.346899 0.048333
vt 0.347138 0.093257
vt 0.425809 0.048333
vt 0.425569 0.093257
vt 0.494147 0.048502
vt 0.493492 0.093426
vt 0.717748 0.093502
vt 0.717301 0.048621
vt 0.793683 0.049198
vt 0.793666 0.094075
vt 0.349683 0.000000
vt 0.423025 0.000000
vt 0.869739 0.048621
vt 0.869260 0.093502
vt 0.006012 0.093401
vt 0.005224 0.048510
vt 0.498360 0.892207
vt 0.498360 0.813297
vt 0.534618 0.823012
vt 0.534618 0.882491
vt 0.756598 0.882491
vt 0.726858 0.934002
vt 0.675348 0.963742
vt 0.615868 0.963742
vt 0.564357 0.934002
vt 0.564357 0.771501
vt 0.615868 0.741761
vt 0.675348 0.741761
vt 0.726858 0.771501
vt 0.756598 0.823012
vt 0.537815 0.960545
vt 0.606153 1.000000
vt 0.792856 0.813296
vt 0.792856 0.892207
vt 0.753401 0.960545
vt 0.685063 1.000000
vt 0.753401 0.744958
vt 0.685063 0.705503
vt 0.606153 0.705503
vt 0.537815 0.744958
vt 0.036671 0.743121
vt 0.100188 0.706449
vt 0.121996 0.787838
vt 0.096252 0.802701
vt 0.286166 0.000157
vt 0.631589 0.001073
vt 0.702575 0.000000
vt 0.560897 0.001074
vt 0.509441 0.000000
vt 0.014507 0.000000
vt 0.066780 0.001463
vt 0.137772 0.001999
vt 0.208462 0.001463
vt 0.259908 0.000000
vt 0.793608 0.000536
vt 0.864298 0.000000
vt 0.722616 0.000000
vt 0.486542 0.000157
vt 0.915829 0.054100
vt 0.915612 0.082874
vt 0.873318 0.085464
vt 0.873555 0.054048
vt 0.237047 0.743121
vt 0.273718 0.806637
vt 0.192329 0.828445
vt 0.177466 0.802701
vt 0.100188 0.980167
vt 0.036671 0.943496
vt 0.096252 0.883915
vt 0.121996 0.898778
vt 0.237047 0.943496
vt 0.173530 0.980167
vt 0.151722 0.898778
vt 0.177466 0.883915
vt -0.000000 0.806637
vt 0.081389 0.828445
vt 0.173530 0.706449
vt 0.151722 0.787838
vt 0.273718 0.879979
vt 0.192329 0.858171
vt -0.000000 0.879979
vt 0.081389 0.858171
vt 0.290576 0.943212
vt 0.274348 0.915105
vt 0.274348 0.882649
vt 0.290576 0.854541
vt 0.318684 0.838313
vt 0.351140 0.838313
vt 0.379247 0.854541
vt 0.395475 0.882649
vt 0.395475 0.915105
vt 0.379247 0.943212
vt 0.351140 0.959440
vt 0.318684 0.959440
vt 0.915132 0.138068
vt 0.915132 0.167795
vt 0.872670 0.169160
vt 0.872670 0.136704
vt 0.872670 0.251692
vt 0.872670 0.223040
vt 0.914943 0.220038
vt 0.914943 0.251320
vt 0.915019 0.104060
vt 0.872670 0.108596
vt 0.915612 0.025448
vt 0.873318 0.022766
vt 0.915196 0.112325
vt 0.872740 0.108596
vt 0.873105 0.280464
vt 0.915418 0.282734
vt 0.915019 0.004597
vt 0.872670 -0.000000
vt 0.915182 0.314067
vt 0.914965 0.342841
vt 0.872670 0.345432
vt 0.872907 0.314016
vt 0.915196 0.193539
vt 0.872740 0.197267
vt 0.873105 0.202185
vt 0.915418 0.197267
vt 0.914965 0.285416
vt 0.872670 0.282734
vt 0.866079 0.839271
vt 0.938148 0.839271
vt 0.937956 0.894261
vt 0.865887 0.894261
vt 0.938918 0.937949
vt 0.866849 0.937949
vt 0.409077 0.806927
vt 0.481147 0.806927
vt 0.480185 0.850615
vt 0.408116 0.850615
vt 0.480377 0.905605
vt 0.408307 0.905605
vt 0.408116 0.704546
vt 0.480213 0.704546
vt 0.480304 0.755736
vt 0.408207 0.755736
vt 0.480213 0.806927
vt 0.408116 0.806927
vt 0.313528 0.838313
vt 0.274348 0.799134
vt 0.274348 0.743725
vt 0.313528 0.704546
vt 0.368936 0.704546
vt 0.408116 0.743725
vt 0.408116 0.799134
vt 0.368936 0.838313
vt 0.793048 0.839271
vt 0.865117 0.839271
vt 0.864926 0.894261
vt 0.792856 0.894261
vt 0.865887 0.937949
vt 0.793818 0.937949
vt 0.926624 0.800091
vt 0.887444 0.839271
vt 0.832036 0.839271
vt 0.792856 0.800091
vt 0.792856 0.744683
vt 0.832036 0.705503
vt 0.887444 0.705503
vt 0.926624 0.744683
vt 0.005076 0.704299
vt 0.000000 0.443204
vt 0.058439 0.444840
vt 0.061318 0.705873
vt 0.793535 0.704986
vt 0.793642 0.443975
vt 0.872670 0.443376
vt 0.869592 0.704410
vt 0.717154 0.704410
vt 0.714275 0.443376
vt 0.425809 0.704376
vt 0.427351 0.443071
vt 0.498360 0.443247
vt 0.494147 0.704546
vt 0.346899 0.704376
vt 0.345357 0.443071
vt 0.278561 0.704546
vt 0.274348 0.443247
vt 0.636999 0.705503
vt 0.634915 0.444501
vt 0.714275 0.443300
vt 0.713374 0.704348
vt 0.560941 0.705503
vt 0.555885 0.444501
vt 0.505579 0.704348
vt 0.498359 0.443300
vt 0.213755 0.705873
vt 0.216834 0.444840
vt 0.274348 0.443204
vt 0.269107 0.704299
vt 0.137699 0.706449
vt 0.137806 0.445438
vt 0.001442 0.365611
vt 0.059271 0.367230
vt 0.793646 0.366359
vt 0.871850 0.365767
vt 0.715107 0.365767
vt 0.426923 0.365479
vt 0.497191 0.365653
vt 0.345785 0.365479
vt 0.275517 0.365653
vt 0.634323 0.366887
vt 0.712855 0.365699
vt 0.556117 0.366887
vt 0.499192 0.365699
vt 0.216014 0.367230
vt 0.272928 0.365611
vt 0.137810 0.367823
vt 0.007555 0.328054
vt 0.062772 0.329599
vt 0.793598 0.328702
vt 0.868268 0.328136
vt 0.718608 0.328136
vt 0.425090 0.328036
vt 0.492183 0.328202
vt 0.347618 0.328036
vt 0.280525 0.328202
vt 0.634085 0.329230
vt 0.709069 0.328096
vt 0.559413 0.329230
vt 0.505060 0.328096
vt 0.212432 0.329599
vt 0.266775 0.328053
vt 0.137762 0.330165
vt 0.006773 0.258036
vt 0.062331 0.259592
vt 0.793621 0.258698
vt 0.868753 0.258128
vt 0.718167 0.258128
vt 0.425330 0.257974
vt 0.492838 0.258141
vt 0.347378 0.257974
vt 0.279870 0.258141
vt 0.633532 0.259228
vt 0.708979 0.258087
vt 0.558397 0.259228
vt 0.503708 0.258087
vt 0.212917 0.259592
vt 0.267596 0.258036
vt 0.137785 0.260161
s 1
g off
g WaterBottle_3_Plastic.001
usemtl Plastic.001
f 126/1/1 2/2/1 4/3/1 127/4/1
s 2
f 127/4/2 4/3/2 6/5/2 129/6/2
s 3
f 129/6/3 6/5/3 8/7/3 131/8/3
s 4
f 131/9/4 8/10/4 10/11/4 133/12/4
s 5
f 133/12/5 10/11/5 12/13/5 135/14/5
s 6
f 135/14/6 12/13/6 14/15/6 137/16/6
s 7
f 137/17/7 14/18/7 16/19/7 139/20/7
s 8
f 139/20/8 16/19/8 18/21/8 141/22/8
s 9
f 141/22/9 18/21/9 20/23/9 143/24/9
s 10
f 143/25/10 20/26/10 22/27/10 145/28/10
s 11
f 18/21/11 16/19/11 44/29/11 45/30/11
s 12
f 145/28/12 22/27/12 24/31/12 147/32/12
s 13
f 147/33/13 24/34/13 2/2/13 126/1/13
s 14
f 11/35/14 13/36/14 31/37/14 30/38/14
s 15
f 25/39/15 26/40/15 27/41/15 28/42/15 29/43/15 30/38/15 31/37/15 32/44/15 33/45/15 34/46/15 35/47/15 36/48/15
s 16
f 9/49/16 11/35/16 30/38/16 29/43/16
s 17
f 7/50/17 9/49/17 29/43/17 28/42/17
s 18
f 23/51/18 1/52/18 25/39/18 36/48/18
s 19
f 1/52/19 3/53/19 26/40/19 25/39/19
s 20
f 5/54/20 7/50/20 28/42/20 27/41/20
s 21
f 21/55/21 23/51/21 36/48/21 35/47/21
s 22
f 3/53/22 5/54/22 27/41/22 26/40/22
s 23
f 19/56/23 21/55/23 35/47/23 34/46/23
s 24
f 17/57/24 19/56/24 34/46/24 33/45/24
s 25
f 15/58/25 17/57/25 33/45/25 32/44/25
s 26
f 13/36/26 15/58/26 32/44/26 31/37/26
s 27
f 45/59/27 44/60/27 56/61/27 57/62/27
s 28
f 16/19/28 14/18/28 43/63/28 44/29/28
s 29
f 14/15/29 12/13/29 42/64/29 43/65/29
s 30
f 12/13/30 10/11/30 41/66/30 42/64/30
s 31
f 10/11/31 8/10/31 40/67/31 41/66/31
s 32
f 2/2/32 24/34/32 48/68/32 38/69/32
s 33
f 4/3/33 2/2/33 38/69/33 37/70/33
s 34
f 8/7/34 6/5/34 39/71/34 40/72/34
s 35
f 24/31/35 22/27/35 47/73/35 48/74/35
s 36
f 6/5/36 4/3/36 37/70/36 39/71/36
s 37
f 22/27/37 20/26/37 46/75/37 47/73/37
s 38
f 20/23/38 18/21/38 45/30/38 46/76/38
s 39
f 49/77/39 50/78/39 62/79/39 61/80/39
s 40
f 42/81/40 41/82/40 53/83/40 54/84/40
s 41
f 38/85/41 48/86/41 60/87/41 50/88/41
s 42
f 39/89/42 37/90/42 49/91/42 51/92/42
s 43
f 46/93/43 45/59/43 57/62/43 58/94/43
s 44
f 43/95/44 42/81/44 54/84/44 55/96/44
s 45
f 40/97/45 39/89/45 51/92/45 52/98/45
s 46
f 47/99/46 46/93/46 58/94/46 59/100/46
s 47
f 44/60/47 43/95/47 55/96/47 56/61/47
s 48
f 41/82/48 40/97/48 52/98/48 53/83/48
s 49
f 48/86/49 47/99/49 59/100/49 60/87/49
s 50
f 37/90/50 38/85/50 50/88/50 49/91/50
s 51
f 61/101/51 62/102/51 72/103/51 71/104/51 70/105/51 69/106/51 68/107/51 67/108/51 66/109/51 65/110/51 64/111/51 63/112/51
s 52
f 57/113/52 56/114/52 68/115/52 69/116/52
s 53
f 54/117/53 53/118/53 65/119/53 66/120/53
s 54
f 50/78/54 60/121/54 72/122/54 62/79/54
s 55
f 51/123/55 49/77/55 61/80/55 63/124/55
s 56
f 58/125/56 57/113/56 69/116/56 70/126/56
s 57
f 55/127/57 54/117/57 66/120/57 67/128/57
s 58
f 52/129/58 51/123/58 63/124/58 64/130/58
s 59
f 59/131/59 58/132/59 70/133/59 71/134/59
s 60
f 56/114/60 55/135/60 67/136/60 68/115/60
s 61
f 53/118/61 52/137/61 64/138/61 65/119/61
s 62
f 60/139/62 59/131/62 71/134/62 72/140/62
s 73
f 23/181/71 100/182/71 89/183/71 1/184/71
s 74
f 21/185/72 99/186/72 100/187/72 23/188/72
s 75
f 19/189/73 98/190/73 99/186/73 21/185/73
s 76
f 17/191/74 97/192/74 98/193/74 19/194/74
s 77
f 15/195/75 96/196/75 97/192/75 17/191/75
s 78
f 13/197/76 95/198/76 96/196/76 15/195/76
s 79
f 11/199/77 94/200/77 95/201/77 13/202/77
s 80
f 9/203/78 93/204/78 94/200/78 11/199/78
s 81
f 7/205/79 92/206/79 93/204/79 9/203/79
s 82
f 5/207/80 91/208/80 92/209/80 7/210/80
s 83
f 3/211/81 90/212/81 91/208/81 5/207/81
s 84
f 1/184/82 89/183/82 90/212/82 3/211/82
s 85
f 100/182/83 112/213/83 101/214/83 89/183/83
s 86
f 99/186/84 111/215/84 112/216/84 100/187/84
s 87
f 98/190/85 110/217/85 111/215/85 99/186/85
s 88
f 97/192/86 109/218/86 110/219/86 98/193/86
s 89
f 96/196/87 108/220/87 109/218/87 97/192/87
s 90
f 95/198/88 107/221/88 108/220/88 96/196/88
s 91
f 94/200/89 106/222/89 107/223/89 95/201/89
s 92
f 93/204/90 105/224/90 106/222/90 94/200/90
s 93
f 92/206/91 104/225/91 105/224/91 93/204/91
s 94
f 91/208/92 103/226/92 104/227/92 92/209/92
s 95
f 90/212/93 102/228/93 103/226/93 91/208/93
s 96
f 89/183/94 101/214/94 102/228/94 90/212/94
s 97
f 112/213/95 124/229/95 113/230/95 101/214/95
s 98
f 111/215/96 123/231/96 124/232/96 112/216/96
s 99
f 110/217/97 122/233/97 123/231/97 111/215/97
s 100
f 109/218/98 121/234/98 122/235/98 110/219/98
s 101
f 108/220/99 120/236/99 121/234/99 109/218/99
s 102
f 107/221/100 119/237/100 120/236/100 108/220/100
s 103
f 106/222/101 118/238/101 119/239/101 107/223/101
s 104
f 105/224/102 117/240/102 118/238/102 106/222/102
s 105
f 104/225/103 116/241/103 117/240/103 105/224/103
s 106
f 103/226/104 115/242/104 116/243/104 104/227/104
s 107
f 102/228/105 114/244/105 115/242/105 103/226/105
s 108
f 101/214/106 113/230/106 114/244/106 102/228/106
s 109
f 124/229/107 148/245/108 125/246/108 113/230/107
s 110
f 123/231/110 146/247/111 148/248/111 124/232/110
s 111
f 122/233/113 144/249/114 146/247/114 123/231/113
s 112
f 121/234/116 142/250/117 144/251/117 122/235/116
s 113
f 120/236/119 140/252/120 142/250/120 121/234/119
s 114
f 119/237/122 138/253/123 140/252/123 120/236/122
s 115
f 118/238/125 136/254/126 138/255/126 119/239/125
s 116
f 117/240/128 134/256/129 136/254/129 118/238/128
s 117
f 116/241/131 132/257/132 134/256/132 117/240/131
s 118
f 115/242/134 130/258/135 132/259/135 116/243/134
s 119
f 114/244/137 128/260/138 130/258/138 115/242/137
s 120
f 113/230/140 125/246/141 128/260/141 114/244/140
s 63
g WaterBottle_3_Grey.001
usemtl Grey.001
f 73/141/63 74/142/63 76/143/63 75/144/63
s 64
f 75/144/64 76/143/64 78/145/64 77/146/64
s 65
f 77/147/65 78/148/65 80/149/65 79/150/65
s 66
f 79/150/66 80/149/66 82/151/66 81/152/66
s 67
f 81/153/67 82/154/67 84/155/67 83/156/67
s 68
f 83/156/68 84/155/68 86/157/68 85/158/68
s 69
f 76/159/51 74/160/51 88/161/51 86/162/51 84/163/51 82/164/51 80/165/51 78/166/51
s 70
f 85/167/69 86/168/69 88/169/69 87/170/69
s 71
f 87/170/70 88/169/70 74/171/70 73/172/70
s 72
f 73/173/15 75/174/15 77/175/15 79/176/15 81/177/15 83/178/15 85/179/15 87/180/15
s 109
g WaterBottle_3_Red.001
usemtl Red.001
f 148/245/108 147/33/109 126/1/109 125/246/108
s 110
f 146/247/111 145/28/112 147/32/112 148/248/111
s 111
f 144/249/114 143/25/115 145/28/115 146/247/114
s 112
f 142/250/117 141/22/118 143/24/118 144/251/117
s 113
f 140/252/120 139/20/121 141/22/121 142/250/120
s 114
f 138/253/123 137/17/124 139/20/124 140/252/123
s 115
f 136/254/126 135/14/127 137/16/127 138/255/126
s 116
f 134/256/129 133/12/130 135/14/130 136/254/129
s 117
f 132/257/132 131/9/133 133/12/133 134/256/132
s 118
f 130/258/135 129/6/136 131/8/136 132/259/135
s 119
f 128/260/138 127/4/139 129/6/139 130/258/138
s 120
f 125/246/141 126/1/142 127/4/142 128/260/141
